<svg width="600" height="216" viewBox="0 0 600 216" fill="none" xmlns="http://www.w3.org/2000/svg">
<g clip-path="url(#clip0_5601_25902)">
<path d="M49.9122 73.4255C53.7609 73.2886 57.3354 72.6587 60.727 70.8145C63.9081 69.089 66.934 67.1261 70.0147 65.2546C79.7689 59.3296 89.5138 53.3865 99.259 47.4434C106.06 43.2987 112.852 39.1448 119.636 34.991C124.179 32.2063 129.737 32.8455 133.248 36.5793C137.809 41.4272 137.105 48.9132 131.611 52.7657C126.967 56.0159 122.204 59.0924 117.487 62.2511C108.967 67.9571 100.438 73.6627 91.9181 79.3686C84.5683 84.2893 77.2093 89.1919 69.8777 94.1307C67.3728 95.8196 65.508 98.0839 64.0636 100.731C61.4398 105.561 57.4174 108.099 51.8319 107.66C44.354 107.076 38.339 100.814 39.8747 92.8253C40.0302 92.0036 40.2677 91.1545 40.6702 90.4334C41.3191 89.2649 40.7433 88.4981 40.0849 87.6398C38.4944 85.5858 36.4284 83.5682 37.4522 80.6651C38.2201 78.5014 39.7103 76.7211 41.8037 75.5526C44.354 74.1285 46.987 73.033 49.9122 73.4255Z" fill="#004AA1"/>
<path d="M40.853 204.486C40.9535 206.641 41.0816 208.795 41.1364 210.95C41.2005 213.406 39.7103 215.149 37.498 215.295C35.1671 215.451 33.5306 213.908 33.2562 211.397C32.1138 201.245 30.9526 191.103 29.8007 180.96C29.0055 174.031 28.2468 167.092 27.4056 160.163C26.2904 150.933 25.1386 141.713 23.9684 132.483C23.0908 125.526 22.067 118.588 20.8968 111.668C19.9187 105.917 23.7033 100.074 29.2433 98.248C34.2527 96.6045 39.7653 99.7817 41.1182 105.104C42.0689 108.856 40.7891 112.472 37.6169 114.708C36.8856 115.219 36.7028 115.767 36.7394 116.616C37.3152 128.749 37.8455 140.882 38.4032 153.006C39.0614 167.293 39.7377 181.581 40.4143 195.859C40.5513 198.735 40.7252 201.601 40.8804 204.477C40.8715 204.486 40.8623 204.486 40.853 204.486Z" fill="#004AA1"/>
<path d="M52.7918 118.479C52.7642 120.606 52.0968 122.386 51.3932 124.157C50.4422 126.54 49.9945 129.023 49.9579 131.588C49.8664 138.49 49.7293 145.392 49.6286 152.285C49.3179 172.47 49.0254 192.664 48.7145 212.849C48.6871 214.392 48.1752 215.15 47.0598 215.277C45.8532 215.414 45.0395 214.666 44.9664 213.296C44.7836 209.663 44.6192 206.02 44.4637 202.387C44.0797 193.714 43.6866 185.05 43.3118 176.377C43.0011 169.402 42.7086 162.418 42.3885 155.444C41.9497 145.767 41.5567 136.08 40.999 126.403C40.7977 122.897 41.2368 119.684 43.3302 116.772C44.1712 115.603 44.5826 114.197 44.9391 112.791C45.4691 110.692 47.5809 110.025 49.2813 111.376C51.6215 113.239 52.7461 115.685 52.7918 118.479Z" fill="#004AA1"/>
<path d="M20.7599 93.656C20.7142 89.5113 22.3597 86.5808 25.1296 84.2346C26.8208 82.8105 28.7314 81.7424 30.8158 80.9937C32.1138 80.5281 32.8816 80.8841 33.3204 82.1987C33.604 83.0661 33.604 83.979 33.412 84.837C32.26 89.8399 29.7644 94.0576 25.8335 97.39C25.5136 97.6638 25.1388 97.8739 24.7639 98.0746C23.1093 98.9421 21.9209 98.4947 21.2535 96.7417C20.8422 95.6189 20.7233 94.4412 20.7599 93.656Z" fill="#004AA1"/>
<path d="M213.611 67.2989L213.557 39.0893L199.542 62.5973H196.992L182.978 39.2535V67.2989H177.657V28.5723H182.201L198.372 55.787L214.324 28.5723H218.868L218.923 67.2989H213.611Z" fill="#004AA1"/>
<path d="M245.406 53.9063V67.29H239.921V53.7968L224.527 28.5723H230.45L242.856 48.9856L255.316 28.5723H260.801L245.406 53.9063Z" fill="#004AA1"/>
<path d="M188.901 128.429C185.4 126.576 182.658 124.01 180.656 120.733C178.663 117.456 177.657 113.767 177.657 109.659C177.657 105.551 178.654 101.863 180.656 98.585C182.649 95.3076 185.4 92.7423 188.901 90.8892C192.403 89.0358 196.343 88.1045 200.731 88.1045C205.119 88.1045 209.059 89.0358 212.56 90.8892C216.061 92.7423 218.804 95.3076 220.806 98.585C222.799 101.863 223.804 105.551 223.804 109.659C223.804 113.767 222.808 117.456 220.806 120.733C218.813 124.01 216.061 126.576 212.56 128.429C209.059 130.282 205.119 131.213 200.731 131.213C196.343 131.213 192.394 130.291 188.901 128.429ZM206.426 120.021C208.126 119.035 209.47 117.638 210.457 115.849C211.445 114.05 211.938 111.987 211.938 109.659C211.938 107.331 211.445 105.268 210.457 103.469C209.47 101.671 208.126 100.283 206.426 99.2972C204.726 98.3113 202.824 97.8182 200.731 97.8182C198.637 97.8182 196.736 98.3113 195.035 99.2972C193.335 100.283 191.991 101.68 191.004 103.469C190.017 105.268 189.523 107.331 189.523 109.659C189.523 111.987 190.017 114.05 191.004 115.849C191.991 117.647 193.335 119.035 195.035 120.021C196.736 121.007 198.628 121.5 200.731 121.5C202.824 121.5 204.726 121.007 206.426 120.021Z" fill="#004AA1"/>
<path d="M248.112 119.373H241.703V130.392H229.966V88.9355H248.944C252.701 88.9355 255.964 89.5563 258.725 90.7979C261.495 92.0394 263.625 93.8197 265.133 96.1294C266.632 98.4391 267.392 101.151 267.392 104.273C267.392 107.276 266.687 109.887 265.288 112.124C263.88 114.352 261.879 116.105 259.274 117.364L268.231 130.392H255.663L248.112 119.373ZM253.688 99.7629C252.463 98.6947 250.644 98.1654 248.231 98.1654H241.703V110.307H248.231C250.644 110.307 252.463 109.787 253.688 108.737C254.913 107.687 255.526 106.199 255.526 104.264C255.526 102.328 254.913 100.831 253.688 99.7629Z" fill="#004AA1"/>
<path d="M282.092 98.2292H269.339V88.9355H306.527V98.2292H293.837V130.392H282.1V98.2292H282.092Z" fill="#004AA1"/>
<path d="M350.416 88.9268V130.383H338.678V114.215H322.663V130.383H310.915V88.9268H322.653V104.501H338.67V88.9268H350.416Z" fill="#004AA1"/>
<path d="M367.822 128.429C364.321 126.576 361.577 124.01 359.575 120.733C357.584 117.456 356.579 113.767 356.579 109.659C356.579 105.551 357.573 101.863 359.575 98.585C361.569 95.3076 364.321 92.7423 367.822 90.8892C371.323 89.0358 375.264 88.1045 379.652 88.1045C384.04 88.1045 387.98 89.0358 391.482 90.8892C394.983 92.7423 397.724 95.3076 399.726 98.585C401.72 101.863 402.725 105.551 402.725 109.659C402.725 113.767 401.728 117.456 399.726 120.733C397.734 124.01 394.983 126.576 391.482 128.429C387.98 130.282 384.04 131.213 379.652 131.213C375.264 131.213 371.313 130.291 367.822 128.429ZM385.336 120.021C387.038 119.035 388.383 117.638 389.369 115.849C390.356 114.05 390.85 111.987 390.85 109.659C390.85 107.331 390.356 105.268 389.369 103.469C388.383 101.671 387.038 100.283 385.336 99.2972C383.637 98.3113 381.735 97.8182 379.641 97.8182C377.55 97.8182 375.648 98.3113 373.946 99.2972C372.247 100.283 370.903 101.68 369.916 103.469C368.927 105.268 368.435 107.331 368.435 109.659C368.435 111.987 368.927 114.05 369.916 115.849C370.903 117.647 372.247 119.035 373.946 120.021C375.648 121.007 377.539 121.5 379.641 121.5C381.746 121.5 383.645 121.007 385.336 120.021Z" fill="#004AA1"/>
<path d="M437.645 90.798C440.415 92.0395 442.546 93.8198 444.053 96.1295C445.563 98.4392 446.313 101.151 446.313 104.273C446.313 107.395 445.563 110.097 444.053 112.389C442.546 114.68 440.415 116.443 437.645 117.693C434.875 118.935 431.611 119.556 427.865 119.556H420.633V130.392H408.896V88.9356H427.873C431.621 88.9265 434.875 89.5472 437.645 90.798ZM432.608 108.737C433.834 107.687 434.447 106.199 434.447 104.264C434.447 102.329 433.834 100.831 432.608 99.763C431.385 98.6948 429.564 98.1655 427.152 98.1655H420.623V110.307H427.152C429.564 110.307 431.385 109.787 432.608 108.737Z" fill="#004AA1"/>
<path d="M485.33 121.327V130.392H451.998V88.9355H484.562V97.9917H463.627V104.985H482.073V113.749H463.627V121.327H485.33Z" fill="#004AA1"/>
<path d="M491.856 88.9268H511.483C516.026 88.9268 520.058 89.7758 523.578 91.4739C527.098 93.172 529.821 95.5821 531.759 98.6951C533.698 101.817 534.666 105.469 534.666 109.65C534.666 113.832 533.698 117.483 531.759 120.606C529.821 123.728 527.098 126.138 523.578 127.836C520.058 129.534 516.026 130.383 511.483 130.383H491.856V88.9268ZM511.007 121.026C514.563 121.026 517.425 120.021 519.572 118.004C521.732 115.986 522.81 113.211 522.81 109.65C522.81 106.09 521.732 103.315 519.572 101.297C517.415 99.2794 514.563 98.2753 511.007 98.2753H503.594V121.016H511.007V121.026Z" fill="#004AA1"/>
<path d="M540.837 88.9268H552.575V130.383H540.837V88.9268Z" fill="#004AA1"/>
<path d="M569.926 128.457C566.462 126.622 563.747 124.066 561.771 120.788C559.796 117.511 558.809 113.804 558.809 109.65C558.809 105.497 559.796 101.79 561.771 98.5126C563.747 95.2351 566.462 92.679 569.926 90.844C573.38 89.009 577.284 88.0869 581.635 88.0869C585.431 88.0869 588.848 88.7626 591.894 90.1045C594.938 91.4464 597.468 93.382 599.481 95.9107L592.012 102.666C589.324 99.4255 586.06 97.8096 582.229 97.8096C579.98 97.8096 577.971 98.3027 576.216 99.2886C574.451 100.275 573.088 101.671 572.12 103.461C571.149 105.259 570.665 107.322 570.665 109.65C570.665 111.978 571.149 114.042 572.12 115.84C573.088 117.639 574.451 119.026 576.216 120.012C577.971 120.998 579.98 121.491 582.229 121.491C586.06 121.491 589.324 119.875 592.012 116.634L599.481 123.39C597.46 125.919 594.938 127.854 591.894 129.196C588.848 130.538 585.431 131.214 581.635 131.214C577.284 131.214 573.38 130.301 569.926 128.457Z" fill="#004AA1"/>
<path d="M203.739 154.977C206.527 157.296 207.917 160.482 207.917 164.545C207.917 168.608 206.527 171.803 203.739 174.113C200.951 176.431 197.139 177.591 192.284 177.591H183.024V188.93H177.667V151.499H192.284C197.129 151.499 200.951 152.659 203.739 154.977ZM199.881 170.771C201.664 169.329 202.56 167.247 202.56 164.545C202.56 161.834 201.664 159.761 199.881 158.319C198.099 156.876 195.511 156.155 192.12 156.155H183.015V172.944H192.12C195.511 172.944 198.099 172.223 199.881 170.771Z" fill="#004AA1"/>
<path d="M240.845 188.93L232.764 177.436C231.767 177.509 230.981 177.546 230.405 177.546H221.145V188.939H215.788V151.509H230.405C235.259 151.509 239.081 152.668 241.86 154.987C244.648 157.306 246.037 160.492 246.037 164.555C246.037 167.44 245.324 169.905 243.898 171.931C242.472 173.967 240.434 175.446 237.792 176.368L246.677 188.93H240.845ZM238.002 170.799C239.785 169.338 240.68 167.248 240.68 164.545C240.68 161.834 239.785 159.762 238.002 158.319C236.219 156.877 233.632 156.156 230.241 156.156H221.135V172.999H230.241C233.632 172.999 236.219 172.269 238.002 170.799Z" fill="#004AA1"/>
<path d="M261.405 186.867C258.369 185.205 255.983 182.923 254.256 179.993C252.528 177.071 251.659 173.812 251.659 170.206C251.659 166.609 252.528 163.341 254.256 160.419C255.983 157.498 258.369 155.206 261.405 153.545C264.441 151.883 267.85 151.062 271.633 151.062C275.381 151.062 278.775 151.892 281.808 153.545C284.843 155.206 287.221 157.489 288.929 160.392C290.639 163.295 291.499 166.572 291.499 170.206C291.499 173.839 290.639 177.117 288.929 180.02C287.221 182.923 284.843 185.205 281.808 186.867C278.775 188.529 275.381 189.35 271.633 189.35C267.85 189.359 264.441 188.529 261.405 186.867ZM279.048 182.731C281.242 181.481 282.97 179.764 284.241 177.573C285.512 175.382 286.143 172.926 286.143 170.224C286.143 167.513 285.512 165.066 284.241 162.875C282.97 160.684 281.242 158.958 279.048 157.717C276.854 156.466 274.376 155.845 271.633 155.845C268.881 155.845 266.395 156.466 264.165 157.717C261.935 158.968 260.189 160.684 258.918 162.875C257.647 165.066 257.016 167.522 257.016 170.224C257.016 172.935 257.647 175.382 258.918 177.573C260.189 179.764 261.935 181.49 264.165 182.731C266.395 183.982 268.881 184.603 271.633 184.603C274.376 184.603 276.854 183.973 279.048 182.731Z" fill="#004AA1"/>
<path d="M330.05 172.807C331.302 174.395 331.923 176.395 331.923 178.823C331.923 182.064 330.697 184.566 328.258 186.309C325.807 188.053 322.25 188.93 317.581 188.93H299.698V151.499H316.51C320.798 151.499 324.107 152.357 326.438 154.065C328.779 155.772 329.95 158.145 329.95 161.176C329.95 163.139 329.492 164.828 328.587 166.252C327.672 167.676 326.456 168.763 324.92 169.511C327.088 170.123 328.798 171.219 330.05 172.807ZM305.038 155.827V167.804H316.016C318.767 167.804 320.88 167.293 322.361 166.279C323.842 165.266 324.583 163.778 324.583 161.815C324.583 159.852 323.842 158.364 322.361 157.351C320.88 156.338 318.767 155.827 316.016 155.827H305.038ZM324.207 183.105C325.744 182.11 326.512 180.54 326.512 178.403C326.512 174.231 323.458 172.15 317.352 172.15H305.038V184.611H317.352C320.385 184.602 322.671 184.1 324.207 183.105Z" fill="#004AA1"/>
<path d="M340.222 151.499H345.581V184.274H365.875V188.93H340.222V151.499Z" fill="#004AA1"/>
<path d="M399.223 184.274V188.93H372.028V151.499H398.474V156.155H377.376V167.649H396.169V172.195H377.376V184.283H399.223V184.274Z" fill="#004AA1"/>
<path d="M442.646 188.93L442.593 161.66L429.043 184.383H426.586L413.036 161.815V188.93H407.899V151.499H412.287L427.92 177.81L443.341 151.499H447.731L447.784 188.93H442.646Z" fill="#004AA1"/>
<path d="M102.276 2.62695C102.276 2.62695 39.0426 40.9338 23.7762 56.6088C8.50959 72.284 -0.641205 84.919 3.71937 142.836C8.07993 200.752 11.572 211.644 11.572 211.644" stroke="url(#paint0_linear_5601_25902)" stroke-width="2" stroke-miterlimit="10" stroke-linecap="round" stroke-linejoin="round"/>
<path d="M150.251 83.6133L70.0144 113.667C70.0144 113.667 83.096 161.14 65.6537 209.48" stroke="url(#paint1_linear_5601_25902)" stroke-width="2" stroke-miterlimit="10" stroke-linecap="round" stroke-linejoin="round"/>
</g>
<defs>
<linearGradient id="paint0_linear_5601_25902" x1="78.4383" y1="-10.8168" x2="-15.2545" y2="202.882" gradientUnits="userSpaceOnUse">
<stop stop-color="#6CBE46"/>
<stop offset="1" stop-color="#A4CE4B"/>
</linearGradient>
<linearGradient id="paint1_linear_5601_25902" x1="123.252" y1="68.7871" x2="61.1273" y2="210.484" gradientUnits="userSpaceOnUse">
<stop stop-color="#6CBE46"/>
<stop offset="1" stop-color="#A4CE4B"/>
</linearGradient>
<clipPath id="clip0_5601_25902">
<rect width="599.77" height="215.417" fill="white"/>
</clipPath>
</defs>
</svg>
