<svg xmlns="http://www.w3.org/2000/svg" xmlns:xlink="http://www.w3.org/1999/xlink" version="1.1" width="1000" height="1000" viewBox="0 0 1000 1000" xml:space="preserve">
<desc>Created with Fabric.js 3.5.0</desc>
<defs>
</defs>
<rect x="0" y="0" width="100%" height="100%" fill="#ffffff"/>
<g transform="matrix(2.0692 0 0 2.0692 500.0002 500.0001)" id="484489">
<path style="stroke: none; stroke-width: 1; stroke-dasharray: none; stroke-linecap: butt; stroke-dashoffset: 0; stroke-linejoin: miter; stroke-miterlimit: 4; is-custom-font: none; font-file-url: none; fill: rgb(129,195,251); fill-rule: nonzero; opacity: 1;" vector-effect="non-scaling-stroke" transform=" translate(-193.3115, -193.3115)" d="M 345.102 189.679 c -0.513 -36.41 -30.292 -65.869 -66.821 -65.869 c -8.241 0 -16.416 1.537 -24.063 4.489 c -5.885 -17.846 -16.907 -33.862 -31.645 -45.778 c -17.406 -14.072 -39.341 -21.822 -61.765 -21.822 c -52.787 0 -95.992 41.821 -98.223 94.069 c -16.8 4.977 -31.924 15.034 -43.061 28.742 C 6.934 199.007 0 218.556 0 238.558 c 0 48.174 39.191 87.366 87.365 87.366 H 315.23 c 39.366 0 71.392 -32.027 71.393 -71.394 C 386.623 226.651 370.146 201.242 345.102 189.679 z M 315.23 310.923 H 87.365 C 47.463 310.923 15 278.46 15 238.558 c 0 -16.567 5.741 -32.757 16.167 -45.588 c 10.282 -12.655 24.655 -21.554 40.47 -25.058 c 3.481 -0.771 5.937 -3.885 5.877 -7.448 l -0.004 -0.247 c -0.007 -0.4 -0.015 -0.801 -0.015 -1.203 c 0 -45.939 37.374 -83.314 83.313 -83.314 c 19.278 0 37.375 6.393 52.334 18.487 c 14.537 11.752 24.806 28.201 28.914 46.315 c 0.524 2.306 2.104 4.231 4.265 5.193 c 2.163 0.962 4.649 0.848 6.713 -0.308 c 7.686 -4.302 16.417 -6.576 25.247 -6.576 c 28.578 0 51.828 23.25 51.828 51.828 c 0 1.038 -0.042 2.144 -0.131 3.482 c -0.221 3.311 1.762 6.375 4.873 7.53 c 21.994 8.165 36.771 29.415 36.771 52.88 C 371.622 285.626 346.325 310.923 315.23 310.923 z" stroke-linecap="round"/>
</g>
</svg>